# xmcd CD database file
#
# Track frame offsets:
#	150
#	27418
#	56530
#	78925
#	104015
#	132438
#	157850
#	182175
#	202638
#	221678
#	246275
#
# Disc length: 3715 seconds
#
# Revision: 3
# Processed by: cddbd v1.5.2PL0 Copyright (c) Steve Scherf et al.
# Submitted via: CDex 1.51
#
DISCID=930e810b
DTITLE=Hugh Masekela - Uptownship
DYEAR=1989
DGENRE=Jazz
TTITLE0=Uptownship
TTITLE1=If You Don't Know Me by Now
TTITLE2=Now Or Never
TTITLE3=Hold On
TTITLE4=Ooo, Baby, Baby
TTITLE5=Egoli
TTITLE6=No Woman, No Cry
TTITLE7=Emavungwengi
TTITLE8=Naledi
TTITLE9=Elijah
TTITLE10=Nomalizo
EXTD=YEAR: 1989
EXTT0=
EXTT1=
EXTT2=
EXTT3=
EXTT4=
EXTT5=
EXTT6=
EXTT7=
EXTT8=
EXTT9=
EXTT10=
PLAYORDER=
